<?xml version="1.0" standalone="no"?>
<!DOCTYPE svg PUBLIC "-//W3C//DTD SVG 20010904//EN"
 "http://www.w3.org/TR/2001/REC-SVG-20010904/DTD/svg10.dtd">
<svg version="1.0" xmlns="http://www.w3.org/2000/svg"
 width="376.000000pt" height="376.000000pt" viewBox="0 0 376.000000 376.000000"
 preserveAspectRatio="xMidYMid meet">
<metadata>
Created by potrace 1.11, written by Peter Selinger 2001-2013
</metadata>
<g transform="translate(0.000000,376.000000) scale(0.100000,-0.100000)"
fill="#000000" stroke="none">
<path d="M0 1880 l0 -640 640 0 640 0 0 640 0 640 -640 0 -640 0 0 -640z"/>
<path d="M1894 2265 c-21 -31 -44 -62 -50 -68 -7 -9 -11 -108 -11 -310 l0
-297 27 0 27 0 0 285 0 284 35 53 35 53 96 0 c53 0 100 -5 106 -10 5 -6 12
-28 15 -50 3 -22 10 -59 16 -83 5 -23 13 -59 16 -80 3 -20 12 -63 19 -94 7
-32 11 -58 9 -58 -3 0 0 -8 5 -17 5 -10 12 -34 15 -53 3 -19 8 -46 10 -60 3
-14 7 -36 10 -50 12 -71 18 -80 46 -80 25 0 28 4 35 48 10 59 11 64 24 121 6
25 13 62 16 81 3 19 10 51 15 70 5 19 12 50 15 68 3 18 12 64 20 102 8 38 17
84 20 102 3 18 8 35 11 38 3 2 48 5 101 5 l96 1 38 -51 38 -50 0 -265 c0 -146
0 -275 0 -287 1 -18 7 -23 26 -23 14 0 25 6 26 13 0 6 1 139 1 294 1 261 -1
284 -18 309 -10 15 -23 34 -29 42 -5 9 -21 28 -34 44 l-24 28 -133 0 c-130 0
-134 -1 -139 -22 -14 -61 -26 -122 -31 -156 -3 -20 -10 -57 -16 -82 -6 -25
-12 -55 -13 -67 -2 -11 -6 -30 -9 -41 -4 -11 -9 -33 -11 -48 -3 -16 -8 -48
-11 -72 -6 -40 -23 -68 -25 -40 -1 17 -5 40 -18 97 -6 25 -13 60 -15 76 -2 17
-6 37 -9 45 -5 13 -10 39 -23 110 -6 38 -15 80 -26 135 l-13 60 -136 3 -135 3
-40 -56z"/>
<path d="M2909 2283 c0 -21 -1 -185 -2 -366 l-2 -327 28 0 c31 0 29 -16 29
185 l1 150 191 0 191 -1 63 85 c55 77 62 90 62 133 0 29 -11 73 -27 113 l-27
65 -253 0 -253 0 -1 -37z m473 -23 c16 -22 34 -82 33 -112 0 -27 -12 -53 -48
-102 l-47 -66 -179 0 -178 0 0 138 c0 75 3 139 8 142 10 7 406 6 411 0z"/>
</g>
</svg>
